<svg xmlns="http://www.w3.org/2000/svg" width="96" height="96" viewBox="0 0 96 96" fill="currentcolor">
	<path d="M38 20L40 24C46 23 51 23 57 24L59 20C63 20.5 69 22 74 25C83 39 87 52 85 67C79 71 73 74 67 76C64.5 73 63 70 63 70C67 69 70 67 70 67L68 65C56 71 41 71 29 65L27 67C27 67 30 69 34 70C34 70 32.5 73 30 76C24 74 18 71 12 67C10 52 14 39 23 25C28 22 34 20.5 38 20ZM43 50.5C43 45 39 43 36 43C33 43 29 45 29 50.5C29 56 33 58 36 58C39 58 43 56 43 50.5ZM68 50.5C68 45 64 43 61 43C58 43 54 45 54 50.5C54 56 58 58 61 58C64 58 68 56 68 50.5Z"/>
</svg>
