<svg width="96" height="96" viewBox="0 0 96 96" fill="none" xmlns="http://www.w3.org/2000/svg">
<g clip-path="url(#clip0_1111:21)">
<path d="M63.0273 75.959C63.0273 79.4258 62.3844 82.4938 61.0986 85.1631C59.8128 87.8324 57.9818 89.8913 55.6055 91.3398C53.2454 92.7721 50.5518 93.4883 47.5244 93.4883C44.4971 93.4883 41.8115 92.7965 39.4678 91.4131C37.124 90.0133 35.293 88.0195 33.9746 85.4316C32.6725 82.8438 31.9889 79.8734 31.9238 76.5205V74.5186C31.9238 71.0355 32.5586 67.9674 33.8281 65.3145C35.1139 62.6452 36.945 60.5863 39.3213 59.1377C41.7139 57.6891 44.432 56.9648 47.4756 56.9648C50.4867 56.9648 53.1722 57.681 55.5322 59.1133C57.8923 60.5456 59.7233 62.5882 61.0254 65.2412C62.3438 67.8779 63.0111 70.9053 63.0273 74.3232V75.959ZM54.3115 74.4697C54.3115 70.9378 53.7174 68.2604 52.5293 66.4375C51.3574 64.5983 49.6729 63.6787 47.4756 63.6787C43.1787 63.6787 40.9082 66.9014 40.6641 73.3467L40.6396 75.959C40.6396 79.4421 41.2174 82.1195 42.373 83.9912C43.5286 85.863 45.2458 86.7988 47.5244 86.7988C49.6891 86.7988 51.3574 85.8792 52.5293 84.04C53.7012 82.2008 54.2952 79.556 54.3115 76.1055V74.4697Z" fill="black"/>
<path d="M92.2461 61.6055C90.9277 63.0703 88.999 64.2503 86.46 65.1455C83.9209 66.0407 81.1377 66.4883 78.1104 66.4883C73.4554 66.4883 69.7363 65.0641 66.9531 62.2158C64.1699 59.3675 62.6807 55.4043 62.4854 50.3262L62.4609 47.25C62.4609 43.7507 63.0794 40.6989 64.3164 38.0947C65.5534 35.4743 67.3193 33.4642 69.6143 32.0645C71.9255 30.6484 74.5947 29.9404 77.6221 29.9404C82.0492 29.9404 85.4834 30.9577 87.9248 32.9922C90.3825 35.0104 91.8148 38.0296 92.2217 42.0498H83.9697C83.6768 40.0641 83.042 38.6481 82.0654 37.8018C81.0889 36.9554 79.7054 36.5322 77.915 36.5322C75.7666 36.5322 74.1064 37.4437 72.9346 39.2666C71.7627 41.0895 71.1686 43.6937 71.1523 47.0791V49.2275C71.1523 52.7757 71.7546 55.445 72.959 57.2354C74.1797 59.0094 76.0921 59.8965 78.6963 59.8965C80.9261 59.8965 82.5863 59.4001 83.6768 58.4072V52.8896H77.7197V47.0059H92.2461V61.6055Z" fill="black"/>
<path d="M63.0273 21.959C63.0273 25.4258 62.3844 28.4938 61.0986 31.1631C59.8128 33.8324 57.9818 35.8913 55.6055 37.3398C53.2454 38.7721 50.5518 39.4883 47.5244 39.4883C44.4971 39.4883 41.8115 38.7965 39.4678 37.4131C37.124 36.0133 35.293 34.0195 33.9746 31.4316C32.6725 28.8438 31.9889 25.8734 31.9238 22.5205V20.5186C31.9238 17.0355 32.5586 13.9674 33.8281 11.3145C35.1139 8.64518 36.945 6.58626 39.3213 5.1377C41.7139 3.68913 44.432 2.96484 47.4756 2.96484C50.4867 2.96484 53.1722 3.68099 55.5322 5.11328C57.8923 6.54557 59.7233 8.58822 61.0254 11.2412C62.3438 13.8779 63.0111 16.9053 63.0273 20.3232V21.959ZM54.3115 20.4697C54.3115 16.9378 53.7174 14.2604 52.5293 12.4375C51.3574 10.5983 49.6729 9.67871 47.4756 9.67871C43.1787 9.67871 40.9082 12.9014 40.6641 19.3467L40.6396 21.959C40.6396 25.4421 41.2174 28.1195 42.373 29.9912C43.5286 31.863 45.2458 32.7988 47.5244 32.7988C49.6891 32.7988 51.3574 31.8792 52.5293 30.04C53.7012 28.2008 54.2952 25.556 54.3115 22.1055V20.4697Z" fill="black"/>
<path d="M14.7051 59.4082H29.6221V66H6.13574V30.4531H14.7051V59.4082Z" fill="black"/>
</g>
<defs>
<clipPath id="clip0_1111:21">
<rect width="96" height="96" fill="white"/>
</clipPath>
</defs>
</svg>
