<svg width="96" height="96" viewBox="0 0 96 96" fill="none" xmlns="http://www.w3.org/2000/svg">
<g clip-path="url(#clip0_1111:39)">
<path d="M83.8472 85.8735C83.8472 87.3433 83.5874 88.6318 83.0679 89.7393C82.5483 90.8467 81.8032 91.7012 80.8325 92.3027C79.8687 92.9043 78.7612 93.2051 77.5103 93.2051C76.2729 93.2051 75.1689 92.9077 74.1982 92.313C73.2275 91.7183 72.4756 90.8706 71.9424 89.77C71.4092 88.6626 71.1392 87.3911 71.1323 85.9556V85.2173C71.1323 83.7476 71.3955 82.4556 71.9219 81.3413C72.4551 80.2202 73.2036 79.3623 74.1675 78.7676C75.1382 78.166 76.2456 77.8652 77.4897 77.8652C78.7339 77.8652 79.8379 78.166 80.8018 78.7676C81.7725 79.3623 82.521 80.2202 83.0474 81.3413C83.5806 82.4556 83.8472 83.7441 83.8472 85.207V85.8735ZM80.73 85.1968C80.73 83.6313 80.4497 82.4419 79.8892 81.6284C79.3286 80.8149 78.5288 80.4082 77.4897 80.4082C76.4575 80.4082 75.6611 80.8115 75.1006 81.6182C74.54 82.418 74.2563 83.5938 74.2495 85.1455V85.8735C74.2495 87.3979 74.5298 88.5806 75.0903 89.4214C75.6509 90.2622 76.4575 90.6826 77.5103 90.6826C78.5425 90.6826 79.3354 90.2793 79.8892 89.4727C80.4429 88.6592 80.7231 87.4766 80.73 85.9248V85.1968Z" fill="black"/>
<path d="M92.8359 71.5859C91.834 72.7858 90.4176 73.7197 88.5869 74.3877C86.7562 75.0433 84.7275 75.3711 82.501 75.3711C80.1631 75.3711 78.1097 74.8639 76.3408 73.8496C74.5843 72.8229 73.2236 71.3385 72.2588 69.3965C71.3063 67.4544 70.8177 65.1722 70.793 62.5498V60.7129C70.793 58.0163 71.2445 55.6846 72.1475 53.7178C73.0628 51.7386 74.374 50.2295 76.0811 49.1904C77.8005 48.139 79.8105 47.6133 82.1113 47.6133C85.3151 47.6133 87.82 48.3802 89.626 49.9141C91.432 51.4355 92.502 53.6559 92.8359 56.5752H87.418C87.1706 55.029 86.6201 53.8971 85.7666 53.1797C84.9255 52.4622 83.7627 52.1035 82.2783 52.1035C80.3857 52.1035 78.9447 52.8148 77.9551 54.2373C76.9655 55.6598 76.4645 57.7751 76.4521 60.583V62.3086C76.4521 65.1413 76.9902 67.2812 78.0664 68.7285C79.1426 70.1758 80.7197 70.8994 82.7979 70.8994C84.8883 70.8994 86.3789 70.4541 87.2695 69.5635V64.9062H82.2041V60.8057H92.8359V71.5859Z" fill="black"/>
<path d="M73.3662 30.8877C73.3662 36.0667 72.4508 40.6074 70.6201 44.5098C68.7894 48.4121 66.1637 51.4232 62.7432 53.543C59.3467 55.6628 55.4443 56.7227 51.0361 56.7227C46.6761 56.7227 42.7858 55.6748 39.3652 53.5791C35.9447 51.4834 33.2949 48.4964 31.416 44.6182C29.5371 40.7158 28.5856 36.2354 28.5615 31.1768V28.5752C28.5615 23.3962 29.4889 18.8434 31.3438 14.917C33.2227 10.9665 35.8604 7.94336 39.2568 5.84766C42.6774 3.72786 46.5798 2.66797 50.9639 2.66797C55.348 2.66797 59.2383 3.72786 62.6348 5.84766C66.0553 7.94336 68.693 10.9665 70.5479 14.917C72.4268 18.8434 73.3662 23.3841 73.3662 28.5391V30.8877ZM62.3818 28.5029C62.3818 22.9867 61.3942 18.7952 59.4189 15.9287C57.4437 13.0622 54.6253 11.6289 50.9639 11.6289C47.3265 11.6289 44.5202 13.0501 42.5449 15.8926C40.5697 18.7109 39.57 22.8542 39.5459 28.3223V30.8877C39.5459 36.2594 40.5335 40.4268 42.5088 43.3896C44.484 46.3525 47.3265 47.834 51.0361 47.834C54.6735 47.834 57.4678 46.4128 59.4189 43.5703C61.3701 40.7038 62.3577 36.5365 62.3818 31.0684V28.5029Z" fill="black"/>
<path d="M21.7485 78.0552H61.25V93H3.14502V2.71094H21.7485V78.0552Z" fill="black"/>
</g>
<defs>
<clipPath id="clip0_1111:39">
<rect width="96" height="96" fill="white"/>
</clipPath>
</defs>
</svg>
