<svg width="192" height="96" viewBox="0 0 192 96" fill="none" xmlns="http://www.w3.org/2000/svg">
<g clip-path="url(#clip0_1111:32)">
<path d="M183.766 49.1016C183.766 57.4219 182.223 64.7852 179.137 71.1914C176.051 77.5977 171.656 82.5391 165.953 86.0156C160.289 89.4531 153.824 91.1719 146.559 91.1719C139.293 91.1719 132.848 89.5117 127.223 86.1914C121.598 82.832 117.203 78.0469 114.039 71.8359C110.914 65.625 109.273 58.4961 109.117 50.4492V45.6445C109.117 37.2852 110.641 29.9219 113.688 23.5547C116.773 17.1484 121.168 12.207 126.871 8.73047C132.613 5.25391 139.137 3.51562 146.441 3.51562C153.668 3.51562 160.113 5.23437 165.777 8.67188C171.441 12.1094 175.836 17.0117 178.961 23.3789C182.125 29.707 183.727 36.9727 183.766 45.1758V49.1016ZM162.848 45.5273C162.848 37.0508 161.422 30.625 158.57 26.25C155.758 21.8359 151.715 19.6289 146.441 19.6289C136.129 19.6289 130.68 27.3633 130.094 42.832L130.035 49.1016C130.035 57.4609 131.422 63.8867 134.195 68.3789C136.969 72.8711 141.09 75.1172 146.559 75.1172C151.754 75.1172 155.758 72.9102 158.57 68.4961C161.383 64.082 162.809 57.7344 162.848 49.4531V45.5273Z" fill="#999999"/>
<path d="M142.391 79.4531C139.227 82.9688 134.598 85.8008 128.504 87.9492C122.41 90.0977 115.73 91.1719 108.465 91.1719C97.293 91.1719 88.3672 87.7539 81.6875 80.918C75.0078 74.082 71.4336 64.5703 70.9648 52.3828L70.9062 45C70.9062 36.6016 72.3906 29.2773 75.3594 23.0273C78.3281 16.7383 82.5664 11.9141 88.0742 8.55469C93.6211 5.15625 100.027 3.45703 107.293 3.45703C117.918 3.45703 126.16 5.89844 132.02 10.7812C137.918 15.625 141.355 22.8711 142.332 32.5195H122.527C121.824 27.7539 120.301 24.3555 117.957 22.3242C115.613 20.293 112.293 19.2773 107.996 19.2773C102.84 19.2773 98.8555 21.4648 96.043 25.8398C93.2305 30.2148 91.8047 36.4648 91.7656 44.5898V49.7461C91.7656 58.2617 93.2109 64.668 96.1016 68.9648C99.0312 73.2227 103.621 75.3516 109.871 75.3516C115.223 75.3516 119.207 74.1602 121.824 71.7773V58.5352H107.527V44.4141H142.391V79.4531Z" fill="black"/>
<path d="M101.766 49.1016C101.766 57.4219 100.223 64.7852 97.1367 71.1914C94.0508 77.5977 89.6562 82.5391 83.9531 86.0156C78.2891 89.4531 71.8242 91.1719 64.5586 91.1719C57.293 91.1719 50.8477 89.5117 45.2227 86.1914C39.5977 82.832 35.2031 78.0469 32.0391 71.8359C28.9141 65.625 27.2734 58.4961 27.1172 50.4492V45.6445C27.1172 37.2852 28.6406 29.9219 31.6875 23.5547C34.7734 17.1484 39.168 12.207 44.8711 8.73047C50.6133 5.25391 57.1367 3.51562 64.4414 3.51562C71.668 3.51562 78.1133 5.23437 83.7773 8.67188C89.4414 12.1094 93.8359 17.0117 96.9609 23.3789C100.125 29.707 101.727 36.9727 101.766 45.1758V49.1016ZM80.8477 45.5273C80.8477 37.0508 79.4219 30.625 76.5703 26.25C73.7578 21.8359 69.7148 19.6289 64.4414 19.6289C54.1289 19.6289 48.6797 27.3633 48.0938 42.832L48.0352 49.1016C48.0352 57.4609 49.4219 63.8867 52.1953 68.3789C54.9688 72.8711 59.0898 75.1172 64.5586 75.1172C69.7539 75.1172 73.7578 72.9102 76.5703 68.4961C79.3828 64.082 80.8086 57.7344 80.8477 49.4531V45.5273Z" fill="#999999"/>
<path d="M23.4922 74.1797H59.293V90H2.92578V4.6875H23.4922V74.1797Z" fill="black"/>
</g>
<defs>
<clipPath id="clip0_1111:32">
<rect width="192" height="96" fill="white"/>
</clipPath>
</defs>
</svg>
