<svg xmlns="http://www.w3.org/2000/svg" version="1.1" xmlns:xlink="http://www.w3.org/1999/xlink" xmlns:svgjs="http://svgjs.com/svgjs" width="1440" height="560" preserveAspectRatio="none" viewBox="0 0 1440 560"><g mask="url(&quot;#SvgjsMask1110&quot;)" fill="none"><rect width="1440" height="560" x="0" y="0" fill="#0e2a47"></rect><path d="M 0,95 C 72,143.2 216,314.4 360,336 C 504,357.6 576,188.6 720,203 C 864,217.4 936,429 1080,408 C 1224,387 1368,160 1440,98L1440 560L0 560z" fill="#184a7e"></path><path d="M 0,14 C 32,111.4 96,501.2 160,501 C 224,500.8 256,18.2 320,13 C 384,7.8 416,453.4 480,475 C 544,496.6 576,124.4 640,121 C 704,117.6 736,478.4 800,458 C 864,437.6 896,6.2 960,19 C 1024,31.8 1056,498.4 1120,522 C 1184,545.6 1216,129.4 1280,137 C 1344,144.6 1408,475.4 1440,560L1440 560L0 560z" fill="#2264ab"></path></g><defs><mask id="SvgjsMask1110"><rect width="1440" height="560" fill="#ffffff"></rect></mask></defs></svg>