<svg width="136" height="24" fill="none" xmlns="http://www.w3.org/2000/svg">
<path d="M0 11.52c0-5.43 0-8.15 1.69-9.83C3.37 0 6.09 0 11.52 0h.96c5.43 0 8.15 0 9.83 1.69C24 3.37 24 6.09 24 11.52v.96c0 5.43 0 8.15-1.69 9.83C20.63 24 17.91 24 12.48 24h-.96c-5.43 0-8.15 0-9.83-1.69C0 20.63 0 17.91 0 12.48v-.96z" fill="#07F"></path>
<path d="M12.77 17.29c-5.47 0-8.59-3.75-8.72-9.99h2.74c.09 4.58 2.11 6.52 3.71 6.92V7.3h2.58v3.95c1.58-.17 3.24-1.97 3.8-3.95h2.58a7.62 7.62 0 01-3.51 4.98 7.9 7.9 0 014.11 5.01h-2.84a4.94 4.94 0 00-4.14-3.57v3.57h-.31z" fill="#fff"></path>
<path fill-rule="evenodd" clip-rule="evenodd" d="M67 12.5c0 3.34-2.43 5.5-5.88 5.5s-5.88-2.16-5.88-5.5S57.67 7 61.12 7C64.57 7 67 9.16 67 12.5zm-9.22 0c0 2.07 1.35 3.5 3.34 3.5s3.34-1.43 3.34-3.5c0-2.07-1.35-3.45-3.34-3.45s-3.34 1.38-3.34 3.45zm-17.03-.21c.95-.45 1.56-1.19 1.56-2.33 0-1.73-1.59-2.96-3.87-2.96h-5.27v11h5.5c2.37 0 4.02-1.29 4.02-3.05a2.76 2.76 0 00-1.94-2.66zM35.6 9.01h2.83c.85 0 1.44.5 1.44 1.2s-.6 1.2-1.44 1.2h-2.83V9zM38.67 16h-3.06V13.3h3.06c.95 0 1.59.55 1.59 1.36 0 .8-.64 1.33-1.59 1.33zM51.84 18h3.19l-5.05-5.71L54.6 7h-2.9l-3.68 4.27h-.6V7H45v11h2.44v-4.38h.59l3.8 4.38zM76.47 7v4.34h-4.93V7H69.1v11h2.44v-4.44h4.92V18h2.44V7h-2.44zM86.9 18h-2.44V9.22h-3.8V7H90.7v2.22h-3.8V18zm9.7-11c-2.14 0-4.02.89-4.57 2.8l2.24.37a2.38 2.38 0 012.2-1.25c1.34 0 2.12.9 2.22 2.33h-2.36c-3.24 0-4.85 1.42-4.85 3.45 0 2.05 1.59 3.3 3.83 3.3 1.8 0 3-.82 3.53-1.73l.5 1.73h1.8v-6.18c0-3.19-1.73-4.82-4.54-4.82zm-.72 9.16c-1.18 0-1.95-.61-1.95-1.56 0-.85.62-1.44 2.48-1.44h2.3c0 1.8-1.14 3-2.83 3zM113.73 18h-3.2l-3.8-4.38h-.6V18h-2.42V7h2.43v4.27h.59L110.4 7h2.9l-4.63 5.29 5.05 5.71zm4.27 0h2.44V9.22h3.8V7H114.2v2.22h3.8V18zm12.3-11c3.33 0 5.7 2.2 5.7 5.37 0 .3-.02.55-.04.79h-8.84c.23 1.69 1.46 2.83 3.32 2.83 1.29 0 2.3-.55 2.83-1.33l2.29.38c-.83 2.1-2.98 2.96-5.27 2.96-3.34 0-5.71-2.18-5.71-5.5s2.37-5.5 5.71-5.5zm3.06 4.25A3.06 3.06 0 00130.29 9a3 3 0 00-3.02 2.25h6.09z" fill="currentColor"></path>
</svg>