<svg xmlns="http://www.w3.org/2000/svg" width="136" height="24" viewBox="0 0 136 24" fill="none" >
<path d="M0 11.52c0-5.43 0-8.15 1.69-9.83C3.37 0 6.09 0 11.52 0h.96c5.43 0 8.15 0 9.83 1.69C24 3.37 24 6.09 24 11.52v.96c0 5.43 0 8.15-1.69 9.83C20.63 24 17.91 24 12.48 24h-.96c-5.43 0-8.15 0-9.83-1.69C0 20.63 0 17.91 0 12.48v-.96z" fill="#07F"></path>
<path d="M12.77 17.29c-5.47 0-8.59-3.75-8.72-9.99h2.74c.09 4.58 2.11 6.52 3.71 6.92V7.3h2.58v3.95c1.58-.17 3.24-1.97 3.8-3.95h2.58a7.62 7.62 0 01-3.51 4.98 7.9 7.9 0 014.11 5.01h-2.84a4.94 4.94 0 00-4.14-3.57v3.57h-.31z" fill="#fff"></path>
</svg>