<svg xmlns="http://www.w3.org/2000/svg" height="24" width="136">

<path d="M0 11.5c0-5.42 0-8.13 1.68-9.82C3.37 0 6.08 0 11.5 0h1c5.42 0 8.13 0 9.82 1.68C24 3.37 24 6.08 24 11.5v1c0 5.42 0 8.13-1.68 9.82C20.63 24 17.92 24 12.5 24h-1c-5.42 0-8.13 0-9.82-1.68C0 20.63 0 17.92 0 12.5z" fill="#2787f5"/>

<path d="M6.5 7.5H4.75c-.5 0-.6.24-.6.5 0 .46.6 2.76 2.76 5.8 1.45 2.07 3.49 3.2 5.34 3.2 1.11 0 1.25-.25 1.25-.68v-1.57c0-.5.1-.6.46-.6.26 0 .7.13 1.74 1.13 1.19 1.19 1.38 1.72 2.05 1.72h1.75c.5 0 .75-.25.6-.74-.15-.5-.72-1.2-1.47-2.05-.4-.49-1.02-1-1.2-1.26-.26-.34-.2-.49 0-.78 0 0 2.13-3 2.35-4.03.11-.37 0-.64-.53-.64H17.5a.76.76 0 00-.76.5s-.9 2.16-2.15 3.57c-.41.41-.6.54-.82.54-.1 0-.27-.13-.27-.5V8.14c0-.44-.13-.64-.5-.64h-2.75c-.28 0-.45.2-.45.4 0 .42.64.52.7 1.7v2.58c0 .57-.1.67-.32.67-.6 0-2.04-2.18-2.9-4.67-.16-.48-.33-.68-.78-.68z" fill="#fff" clip-rule="evenodd" fill-rule="evenodd"/>

</svg>