<svg xmlns="http://www.w3.org/2000/svg" fill-rule="evenodd" clip-rule="evenodd">
<defs>
	<style>:root svg:not(:target) {display: none;}</style>
</defs>


<!--Иконки фигур:-->
<svg id="transparency-cells" viewBox="0 0 2 2" fill="#DEDEDE">
	<path d="M1 2V0H2V1H0V2H1Z"/>
</svg>


<svg id="dot-shadow" viewBox="0 0 4 4" fill="currentcolor">
	<circle cx="2" cy="2" r="1"/>
</svg>


<svg id="plus" viewBox="0 0 8 8" fill="none" stroke="currentcolor" stroke-width="1" stroke-linecap="square">
	<path d="M4 1V7M1 4H7"/>
</svg>
<!--<svg id="plus-dark" viewBox="0 0 8 8" fill="none" stroke="currentcolor" stroke-width="1" stroke-linecap="square">
	<path d="M4 1V7M1 4H7"/>
</svg>-->


<svg id="cross" viewBox="0 0 8 8" fill="none" stroke="black" stroke-width="1">
	<path d="M1 1L7 7M7 1L1 7"/>
</svg>


<svg id="checkbox" viewBox="0 0 8 8" fill="none" stroke="currentcolor" stroke-width="1">
	<path d="M1.5 4L3.5 6L7 2.5"/>
</svg>


<svg id="burger" viewBox="0 0 8 8" fill="none" stroke="currentcolor" stroke-width="1" stroke-linecap="square">
	<path d="M1 1H7M1 4H7M1 7H7"/>
</svg>


<svg id="arrow-simple" viewBox="0 0 8 8" fill="none" stroke="black" stroke-width="1">
	<path d="M3 1L6 4L3 7"/>
	<!--<path id="down" d="M1 3L4 6L7 3"/>
	<path id="left" d="M5 1L2 4L5 7"/>
	<path id="up" d="M1 5L4 2L7 5"/>-->
</svg>

<svg id="arrow-simple-dark" viewBox="0 0 8 8" fill="none" stroke="#fff" stroke-width="1">
	<path d="M1 3L4 6L7 3"/>
</svg>


<svg id="arrow-link" viewBox="0 0 8 8" fill="none" stroke="currentcolor" stroke-width="1">
	<path d="M4.5 1H7V3.5 M7 1L3.5 4.5 M3.5 1.5H1L1 7L6.5 7V4.5"/>
	<!--<path id="var-2" d="M4.5 1H7V3.5 M7 1L3.5 4.5 M3.5 1H1L1 7L7 7V4.5"/>-->
</svg>


<svg id="arrow-diagonal" viewBox="0 0 8 8" fill="none" stroke="currentcolor" stroke-width="1">
	<path d="M1 7L7 1"/>
	<path d="M1 1H7V7" stroke-linecap="square"/>
	<!--<path id="diagonal-down2" d="M1 7L7 1"/>
	<path id="diagonal-down" d="M1 1V7H7" stroke-linecap="square"/>-->
</svg>


<svg id="arrow-bold" viewBox="0 0 8 8" fill="currentcolor" stroke="currentcolor" stroke-width="1">
	<path d="M5 2H3V5H2L4 7L6 5H5V2Z"/>
</svg>


<svg id="arrow" viewBox="0 0 8 8" fill="none" stroke="currentcolor" stroke-width="1">
	<path d="M6 4H1 M4 2L6 4L4 6"/>
	<!--<path id="down" d="M4 6V1 M6 4L4 6L2 4"/>
	<path id="left" d="M2 4H7 M4 2L2 4L4 6"/>
	<path id="up" d="M4 2V7 M2 4L4 2L6 4"/>-->
</svg>




<!--Иконки соцсетей:-->
<svg id="email" viewBox="0 0 96 96" fill="currentcolor">
	<path d="M88 70V26L61 48L88 70Z M8 74H88L58.5 50C50.5 56.5 45.5 56.5 37.5 50L8 74Z M88 22H8L40 48C46 53 50 53 56 48L88 22Z M8 26V70L35 48L8 26Z"/>
</svg>


<svg id="tel" viewBox="0 0 96 96" fill="currentcolor">
	<path d="M7 39C4 46 3 59 3 66L29 63C29 57 25 46 25 46C25 46 30 39 48 39C66 39 71 46 71 46C71 46 67 57 67 63L93 66C93 59 92 46 89 39C89 39 77 30 48 30C19 30 7 39 7 39Z" transform="rotate(240 47 48)"/>
</svg>


<svg id="telegram" viewBox="0 0 96 96" fill="currentcolor">
	<path d="M80 28C80.5 23 79 21 73 23C55 29 13 48 13 48C8.5 50 9 53 13 54L23.5 57C26.5 58 29 58 32 56L59 38C62 36 64 37 62 39L42.5 58C38 63 41 64 45 67L63 79C69 83 71.5 80 73 73C73 73 79 41 80 28Z"/>
</svg>


<svg id="vkontakte" viewBox="0 0 96 96" fill="currentcolor">
	<path d="M21 23H8C9 53 22 73 53 73V55C65 57 71 64 74 73H88C85 60 75 52 67 48C75 44 83 34 85 23H72C70 32 61 42 53 43V23H40V58C28 55 21 40 21 23Z"/>
</svg>


<svg id="discord" viewBox="0 0 96 96" fill="currentcolor">
	<path d="M38 20L40 24C46 23 51 23 57 24L59 20C63 20.5 69 22 74 25C83 39 87 52 85 67C79 71 73 74 67 76C64.5 73 63 70 63 70C67 69 70 67 70 67L68 65C56 71 41 71 29 65L27 67C27 67 30 69 34 70C34 70 32.5 73 30 76C24 74 18 71 12 67C10 52 14 39 23 25C28 22 34 20.5 38 20ZM43 50.5C43 45 39 43 36 43C33 43 29 45 29 50.5C29 56 33 58 36 58C39 58 43 56 43 50.5ZM68 50.5C68 45 64 43 61 43C58 43 54 45 54 50.5C54 56 58 58 61 58C64 58 68 56 68 50.5Z"/>
</svg>


<svg id="boosty" viewBox="0 0 96 96" fill="currentcolor">
	<path d="M35 15H52L40 60H48L40 81C25 81 20 70 24 56L35 15ZM40 81L60 51H51.5L59 31C71 32 78 43 74 56C70 71 54 81 40 81Z" />
</svg>





<svg id="logo" viewBox="0 0 72 72" fill="none" stroke="currentcolor">
	<path d="M69 36c0 18-15 33-33 33S3 54 3 36 18 3 36 3s33 15 33 33ZM4 44l16-16 16 16 16-16 16 16" stroke-width="5"/>
</svg>


<svg id="placeholder" viewBox="0 0 8 8" fill="none" preserveAspectRatio="none">
	<rect width="8" height="8" fill="hsl(0 0% 85%)"/>
	<path d="M0 0L8 8M8 0L0 8" stroke="#fff" stroke-opacity="0.5" stroke-width="0.2"/>
</svg>




</svg>
